<?xml version="1.0" encoding="iso-8859-1"?>
<!-- Uploaded to: SVG Repo, www.svgrepo.com, Generator: SVG Repo Mixer Tools -->
<svg fill="#facc15" height="800px" width="800px" version="1.1" id="Capa_1" xmlns="http://www.w3.org/2000/svg" xmlns:xlink="http://www.w3.org/1999/xlink" 
	 viewBox="0 0 480 480" xml:space="preserve">
<g>
	<path d="M96,160H84v-8c0-4.418-3.582-8-8-8s-8,3.582-8,8v8H56c-4.418,0-8,3.582-8,8s3.582,8,8,8h40c4.418,0,8-3.582,8-8
		S100.418,160,96,160z"/>
	<path d="M424,160h-12v-8c0-4.418-3.582-8-8-8s-8,3.582-8,8v8h-12c-4.418,0-8,3.582-8,8s3.582,8,8,8h40c4.418,0,8-3.582,8-8
		S428.418,160,424,160z"/>
	<path d="M472,360h-24V216c4.418,0,8-3.582,8-8V88c0-4.418-3.582-8-8-8s-8,3.582-8,8v19.433l-28-30.545V56c0-4.418-3.582-8-8-8
		s-8,3.582-8,8v20.887l-28,30.545V88c0-4.418-3.582-8-8-8s-8,3.582-8,8v64h-88c0-4.418-3.582-8-8-8s-8,3.582-8,8h-16
		c0-4.418-3.582-8-8-8s-8,3.582-8,8h-88V88c0-4.418-3.582-8-8-8s-8,3.582-8,8v19.433L84,76.887V56c0-4.418-3.582-8-8-8s-8,3.582-8,8
		v20.887l-28,30.545V88c0-4.418-3.582-8-8-8s-8,3.582-8,8v120c0,4.418,3.582,8,8,8v144H8c-4.418,0-8,3.582-8,8s3.582,8,8,8h8v40
		c-4.418,0-8,3.582-8,8s3.582,8,8,8h111.99c0.006,0,0.011,0.001,0.017,0.001c0.004,0,0.008-0.001,0.013-0.001H136
		c4.418,0,8-3.582,8-8s-3.582-8-8-8v-9.965l104-29.714l104,29.714V416c-4.418,0-8,3.582-8,8s3.582,8,8,8h111.99
		c0.006,0,0.011,0.001,0.017,0.001c0.004,0,0.008-0.001,0.013-0.001H464c4.418,0,8-3.582,8-8s-3.582-8-8-8v-40h8
		c4.418,0,8-3.582,8-8S476.418,360,472,360z M424,360v-24c0-4.418-3.582-8-8-8s-8,3.582-8,8v24h-8v-24c0-4.418-3.582-8-8-8
		s-8,3.582-8,8v24h-8v-40h56v40H424z M120,360V216c4.418,0,8-3.582,8-8v-16h224v16c0,4.418,3.582,8,8,8v144H120z M88,280
		c-4.418,0-8,3.582-8,8v16h-8v-16c0-4.418-3.582-8-8-8s-8,3.582-8,8v16h-8v-40h56v40h-8v-16C96,283.582,92.418,280,88,280z M40,200
		v-64h72v64H40z M76,91.838L101.814,120H84v-8c0-4.418-3.582-8-8-8s-8,3.582-8,8v8H50.186L76,91.838z M404,91.838L429.814,120H412
		v-8c0-4.418-3.582-8-8-8s-8,3.582-8,8v8h-17.814L404,91.838z M368,200v-64h72v64H368z M432,264v40h-8v-16c0-4.418-3.582-8-8-8
		s-8,3.582-8,8v16h-8v-16c0-4.418-3.582-8-8-8s-8,3.582-8,8v16h-8v-40H432z M432,248h-8v-16c0-4.418-3.582-8-8-8s-8,3.582-8,8v16h-8
		v-16c0-4.418-3.582-8-8-8s-8,3.582-8,8v16h-8v-32h56V248z M352,168v8h-88v-8H352z M248,168v8h-16v-8H248z M216,168v8h-88v-8H216z
		 M104,216v32h-8v-16c0-4.418-3.582-8-8-8s-8,3.582-8,8v16h-8v-16c0-4.418-3.582-8-8-8s-8,3.582-8,8v16h-8v-32H104z M48,320h56v40
		h-8v-24c0-4.418-3.582-8-8-8s-8,3.582-8,8v24h-8v-24c0-4.418-3.582-8-8-8s-8,3.582-8,8v24h-8V320z M120,376v23.81
		c0,0,0,0.004,0,0.006v4.715c-9.652-7.969-23.964-16.867-42.507-20.39c-0.986-0.188-2-0.188-2.986,0
		c-18.542,3.523-32.855,12.422-42.507,20.39V376H120z M108.673,416H43.328c7.745-6.179,18.795-12.892,32.672-15.84
		C89.879,403.108,100.93,409.822,108.673,416z M136,376h46.878L136,389.393V376z M297.122,376H344v13.394L297.122,376z M371.328,416
		c7.745-6.179,18.795-12.892,32.672-15.84c13.879,2.948,24.93,9.663,32.673,15.84H371.328z M448,404.531
		c-9.652-7.969-23.964-16.867-42.507-20.39c-0.986-0.188-2-0.188-2.986,0c-18.542,3.523-32.855,12.422-42.507,20.39v-4.715
		c0-0.002,0-0.004,0-0.004V376h88V404.531z"/>
</g>
</svg>